<svg xmlns="http://www.w3.org/2000/svg" viewBox="0 0 920 480" role="img" aria-label="Sequęncia comando">
  <rect width="920" height="480" rx="16" fill="#0c0d0f"/>
  <text x="36" y="40" fill="#f4f1ec" font-family="Segoe UI, Arial" font-size="20" font-weight="700">Sequęncia  comando com invariante + HIL + audit</text>

  <g font-family="Consolas, monospace" font-size="12" fill="#8b8680">
    <text x="80" y="90">UI</text>
    <text x="250" y="90">API/WS</text>
    <text x="430" y="90">HIL</text>
    <text x="590" y="90">Twin</text>
    <text x="760" y="90">Audit</text>
    <line x1="90" y1="100" x2="90" y2="440" stroke="rgba(244,241,236,0.12)"/>
    <line x1="260" y1="100" x2="260" y2="440" stroke="rgba(244,241,236,0.12)"/>
    <line x1="440" y1="100" x2="440" y2="440" stroke="rgba(244,241,236,0.12)"/>
    <line x1="600" y1="100" x2="600" y2="440" stroke="rgba(244,241,236,0.12)"/>
    <line x1="770" y1="100" x2="770" y2="440" stroke="rgba(244,241,236,0.12)"/>
  </g>

  <g font-family="Segoe UI, Arial" font-size="12">
    <path d="M90 130 H260" stroke="#7ec8e8" stroke-width="1.5" marker-end="url(#a)"/>
    <text x="120" y="122" fill="#7ec8e8">action (door/engine/&)</text>

    <path d="M260 170 H440" stroke="#ff8a80" stroke-width="1.5"/>
    <text x="280" y="162" fill="#ff8a80">apply(delay|drop?)</text>

    <path d="M440 210 H600" stroke="#c9a227" stroke-width="1.5"/>
    <text x="460" y="202" fill="#c9a227">guard(INV-xx)</text>

    <path d="M600 250 H770" stroke="#9ed4b5" stroke-width="1.5"/>
    <text x="620" y="242" fill="#9ed4b5">HMAC + hash tip</text>

    <path d="M770 290 H90" stroke="#e4d4a0" stroke-width="1.5" stroke-dasharray="4 3"/>
    <text x="350" y="282" fill="#e4d4a0">broadcast state + QoS</text>

    <rect x="200" y="330" width="520" height="100" rx="10" fill="#141618" stroke="rgba(244,241,236,0.12)"/>
    <text x="220" y="360" fill="#ff8a80" font-weight="700">Falha</text>
    <text x="220" y="382" fill="#c8c4bc">HIL drop ’ ValueError HIL drop</text>
    <text x="220" y="404" fill="#c8c4bc">INV violada ’ HTTP 409 / WS invariant_violation</text>
  </g>
  <defs>
    <marker id="a" markerWidth="8" markerHeight="8" refX="6" refY="3" orient="auto">
      <path d="M0,0 L6,3 L0,6 Z" fill="#7ec8e8"/>
    </marker>
  </defs>
</svg>
